<?xml version="1.0" encoding="UTF-8" standalone="no"?>
<!-- Created with Inkscape (http://www.inkscape.org/) -->

<svg
   width="27mm"
   height="27mm"
   viewBox="0 0 27 27"
   version="1.1"
   id="svg11537"
   xml:space="preserve"
   inkscape:version="1.2.1 (9c6d41e410, 2022-07-14)"
   sodipodi:docname="CuTEL_Logo_Web_Dark.svg"
   xmlns:inkscape="http://www.inkscape.org/namespaces/inkscape"
   xmlns:sodipodi="http://sodipodi.sourceforge.net/DTD/sodipodi-0.dtd"
   xmlns="http://www.w3.org/2000/svg"
   xmlns:svg="http://www.w3.org/2000/svg"><sodipodi:namedview
     id="namedview11539"
     pagecolor="#fffafa"
     bordercolor="#000000"
     borderopacity="0.25"
     inkscape:showpageshadow="2"
     inkscape:pageopacity="0"
     inkscape:pagecheckerboard="0"
     inkscape:deskcolor="#d1d1d1"
     inkscape:document-units="mm"
     showgrid="false"
     inkscape:zoom="3.0787879"
     inkscape:cx="96.95374"
     inkscape:cy="98.577756"
     inkscape:window-width="1920"
     inkscape:window-height="991"
     inkscape:window-x="-9"
     inkscape:window-y="-9"
     inkscape:window-maximized="1"
     inkscape:current-layer="layer1" /><defs
     id="defs11534"><rect
       x="-294.8718"
       y="314.10257"
       width="356.41025"
       height="383.33334"
       id="rect23968" /><rect
       x="26.203926"
       y="24.762285"
       width="53.934296"
       height="45.878071"
       id="rect21229" /><rect
       x="26.203926"
       y="24.762285"
       width="53.934296"
       height="45.878071"
       id="rect21229-1" /><rect
       x="26.203926"
       y="24.762285"
       width="53.934296"
       height="45.878071"
       id="rect21242" /><rect
       x="26.203926"
       y="24.762285"
       width="53.934296"
       height="45.878071"
       id="rect21229-4" /></defs><g
     inkscape:label="Layer 1"
     inkscape:groupmode="layer"
     id="layer1"><rect
       style="fill:none;stroke:#000000;stroke-width:1.5;stroke-miterlimit:4;stroke-dasharray:none;stroke-opacity:1"
       id="rect21225"
       width="25"
       height="25"
       x="1"
       y="1" /><g
       id="g12912"
       transform="translate(-92.364121,-135.44509)"
       style="fill:#000000;fill-opacity:1"><path
         d="m 104.10886,150.28309 1.97941,0.62762 q -0.4552,1.65525 -1.51732,2.46218 -1.05522,0.80004 -2.68288,0.80004 -2.01389,0 -3.310507,-1.37248 -1.296613,-1.37937 -1.296613,-3.76569 0,-2.52427 1.303511,-3.91743 1.30351,-1.40007 3.427749,-1.40007 1.85526,0 3.01394,1.0966 0.68968,0.64831 1.03453,1.86216 l -2.02079,0.48278 q -0.1793,-0.78624 -0.75176,-1.24144 -0.56554,-0.45519 -1.37938,-0.45519 -1.12418,0 -1.82766,0.80693 -0.696592,0.80694 -0.696592,2.61392 0,1.91734 0.689692,2.73117 0.68968,0.81383 1.79318,0.81383 0.81384,0 1.40007,-0.51727 0.58624,-0.51726 0.84142,-1.62766 z"
         style="font-weight:bold;font-size:3.88056px;line-height:1.25;font-family:Helvetica;-inkscape-font-specification:'Helvetica Bold';white-space:pre;fill:#000000;fill-opacity:1;stroke-width:1;stroke-dasharray:none"
         id="path2485" /><path
         d="m 112.6472,154.00051 v -1.09661 q -0.40002,0.58624 -1.05522,0.92419 -0.64831,0.33796 -1.37248,0.33796 -0.73797,0 -1.3242,-0.32417 -0.58624,-0.32417 -0.84832,-0.91039 -0.26207,-0.58623 -0.26207,-1.62076 v -4.63471 h 1.93802 v 3.36568 q 0,1.5449 0.10345,1.89664 0.11036,0.34485 0.39312,0.55175 0.28278,0.20001 0.71727,0.20001 0.49658,0 0.8897,-0.26898 0.39313,-0.27587 0.53796,-0.6759 0.14483,-0.40691 0.14483,-1.9794 v -3.08981 h 1.93803 v 7.32449 z"
         style="font-weight:bold;font-size:3.88056px;line-height:1.25;font-family:Helvetica;-inkscape-font-specification:'Helvetica Bold';white-space:pre;fill:#000000;fill-opacity:1;stroke-width:1;stroke-dasharray:none"
         id="path2487" /></g></g></svg>
